<svg height="37" viewBox="0 0 200 37" width="200" xmlns="http://www.w3.org/2000/svg"><g fill="#fff"><g transform="translate(40.83 8.304)"><g transform="translate(84.083)"><path d="m7.12802768 7.09342561c-.48442906.55363321-1.34948097 1.14186851-2.83737024 1.14186851-2.24913495 0-3.97923876-1.5916955-3.97923876-4.01384083s1.73010381-4.01384083 3.97923876-4.01384083c1.4532872 0 2.3183391.62283737 2.76816609 1.03806228l-.44982699.8650519c-.31141869-.38062283-1.17647059-.93425605-2.24913495-.93425605-1.66089965 0-2.90657439 1.21107266-2.90657439 3.0449827 0 1.83391003 1.21107266 3.0449827 2.90657439 3.0449827 1.03806229 0 1.79930796-.38062284 2.3183391-.93425606zm3.35640142 1.14186851c-1.59169554 0-2.83737028-1.10726644-2.83737028-2.76816609 0-1.66089966 1.24567474-2.80276817 2.83737028-2.80276817 1.5916955 0 2.8373702 1.14186851 2.8373702 2.80276817 0 1.66089965-1.2456747 2.76816609-2.8373702 2.76816609zm0-4.70588236c-1.07266439 0-1.73010384.83044983-1.73010384 1.86851212 0 1.07266436.65743945 1.90311418 1.73010384 1.90311418 1.0726643 0 1.7301038-.83044982 1.7301038-1.90311418 0-1.03806229-.6574395-1.86851212-1.7301038-1.86851212zm8.6159169 4.56747405h-1.1072664v-2.97577854c0-.89965398-.1730104-1.59169551-1.1072665-1.59169551-1.0034602 0-1.384083.83044983-1.384083 1.86851212v2.69896193h-1.0726644v-5.32871972h1.0726644v.83044983h.0346021c.2768166-.51903114.8650519-.93425606 1.6262976-.93425606 1.5224913 0 1.9031141 1.00346021 1.9031141 2.28373703v3.14878892zm4.4982699-.34602076c-.3806228.31141869-.8650519.48442907-1.4878893.48442907-.8996539 0-1.6262975-.38062284-2.0761245-.96885813l.5190311-.62283737c.4152249.48442906 1.0726644.76124567 1.5916955.76124567.4844291 0 1.0380623-.17301038 1.0380623-.76124567 0-.5882353-.8304498-.76124568-1.2110727-.89965398-.3460207-.13840831-.484429-.13840831-.7266436-.27681661-.3460207-.17301038-.8304498-.51903114-.8304498-1.28027682 0-1.00346021.8650519-1.52249135 1.799308-1.52249135.934256 0 1.4878892.34602076 1.83391.69204152l-.449827.65743945c-.3114187-.31141868-.8304498-.58823529-1.349481-.58823529-.5190311 0-.8650519.20761245-.8650519.65743944s.5190312.62283737 1.0380623.79584775c.2768166.10380623.4844291.17301038.7266436.24221454.2076125.10380622.449827.24221453.6228374.38062283.2076125.20761246.4152249.51903115.4152249 1.00346021-.0692041.55363322-.2422145.96885813-.5882353 1.24567474zm6.4359862-2.04152249h-4.1176471c.0692042 1.07266436.7266436 1.69550173 1.7301038 1.69550173s1.6608997-.55363322 1.7647059-.62283737l.449827.62283737c-.0692042.06920415-.7612457.83044983-2.3529412.83044983s-2.6643598-1.10726644-2.6643598-2.80276817 1.2110726-2.76816609 2.6989619-2.76816609 2.5259516 1.07266436 2.5259516 2.56055363c0 .20761246-.0346021.48442907-.0346021.48442907zm-.9688582-.7266436c0-.58823529-.4498269-1.52249135-1.5570934-1.52249135-1.0726643 0-1.5570934.89965398-1.5916955 1.52249135zm2.6643599-3.32179931c-.4152249 0-.6920415-.27681661-.6920415-.65743944 0-.38062284.2768166-.65743945.6920415-.65743945s.6920415.27681661.6920415.65743945c0 .38062283-.2768166.65743944-.6920415.65743944zm.5536332 6.43598616h-1.0726643v-5.32871972h1.0726643z"/><path d="m34.913 8.097h-1.072v-7.751h1.072z"/><path d="m43.8754325 8.09688581h-1.0380623v-.83044982h-.034602c-.449827.65743944-1.1072665.96885813-1.8685121.96885813-1.5916955 0-2.5951558-1.21107267-2.5951558-2.80276817s1.0034603-2.76816609 2.5951558-2.76816609c.8650519 0 1.4878892.38062284 1.8685121.93425606h.034602v-3.25259516h1.0726644v7.75086505zm-2.733564-4.56747405c-1.0726643 0-1.6955017.79584776-1.6955017 1.86851212s.6228374 1.90311418 1.6955017 1.90311418c1.0726644 0 1.6955017-.83044982 1.6955017-1.90311418 0-1.03806229-.6228373-1.86851212-1.6955017-1.86851212zm9.1349481 2.1799308h-4.117647c.0692041 1.07266436.7266435 1.69550173 1.7301038 1.69550173 1.0034602 0 1.6608996-.55363322 1.7647058-.62283737l.449827.62283737c-.0692041.06920415-.7612456.83044983-2.3529411.83044983s-2.6643599-1.10726644-2.6643599-2.80276817 1.2110727-2.76816609 2.6989619-2.76816609c1.4878893 0 2.5259516 1.07266436 2.5259516 2.56055363 0 .20761246-.0346021.48442907-.0346021.48442907zm-.9688581-.7266436c0-.58823529-.449827-1.52249135-1.5570934-1.52249135-1.0726644 0-1.5570935.89965398-1.5916955 1.52249135zm5.1211072 2.76816609c-.3806228.31141869-.8650519.48442907-1.4878892.48442907-.899654 0-1.6262976-.38062284-2.0761246-.96885813l.5190311-.62283737c.415225.48442906 1.0726644.76124567 1.5916955.76124567.4844291 0 1.0380623-.17301038 1.0380623-.76124567 0-.5882353-.8304498-.76124568-1.2110726-.89965398-.3460208-.13840831-.4844291-.13840831-.7266436-.27681661-.3460208-.17301038-.8304499-.51903114-.8304499-1.28027682 0-1.00346021.8650519-1.52249135 1.799308-1.52249135s1.4878893.34602076 1.83391.69204152l-.449827.65743945c-.3114186-.31141868-.8304498-.58823529-1.3494809-.58823529-.5190312 0-.8650519.20761245-.8650519.65743944s.5190311.62283737 1.0380623.79584775c.2768166.10380623.484429.17301038.7266436.24221454.2076124.10380622.4498269.24221453.6228373.38062283.2076125.20761246.4152249.51903115.4152249 1.00346021-.034602.55363322-.2422145.96885813-.5882353 1.24567474zm8.0276817.34602076h-1.0380623v-.69204152c-.2076124.24221453-.7266436.79584775-1.6955017.79584775-1.0034602 0-1.83391-.62283737-1.83391-1.66089965 0-1.03806229.8650519-1.5916955 2.1107266-1.62629758l1.4186851-.06920415v-.20761246c0-.79584775-.5536332-1.21107266-1.3148789-1.21107266-.7612456 0-1.4186851.34602076-1.6262975.44982699l-.3114187-.7266436c.3806228-.24221454 1.1072664-.55363322 2.0069204-.55363322s1.4186851.24221453 1.7647059.62283737c.3460207.38062284.5882353.83044983.5882353 1.73010381v3.14878892zm-1.0726644-2.56055363-1.2456747.06920415c-.8650519.03460208-1.2110727.41522492-1.2110727.93425606s.3806229.93425605 1.1072665.93425605c.6920415 0 1.1764706-.48442906 1.3494809-.76124567zm5.3633218-1.76470588h-.034602c-.1038063-.03460208-.2768166-.10380623-.5882353-.10380623-.4844291 0-.7612457.31141868-.8650519.44982699-.1038063.1384083-.3114187.55363322-.3114187 1.34948097v2.66435986h-1.0726644v-5.3633218h1.0726644v.83044983h.0346021c.2422145-.62283737.7266436-.93425606 1.3148789-.93425606.3460207 0 .5536332.10380623.5536332.10380623zm3.4602077 4.29065744s-.415225.17301038-.9688582.17301038-.899654-.20761246-1.1418685-.55363322c-.2076124-.34602076-.2768166-.76124568-.2768166-1.5916955v-2.45674741h-.7958477v-.8650519h.7958477v-1.5916955h1.0726644v1.5916955h1.2802768v.8650519h-1.2802768v2.42214533c0 .44982699 0 .76124568.1384083.96885813.1038062.17301038.2422145.27681661.5536332.27681661s.5536332-.1384083.5536332-.1384083zm3.9446366-.31141869c-.3806228.31141869-.8650519.48442907-1.4878892.48442907-.899654 0-1.6262976-.38062284-2.0761246-.96885813l.5190311-.62283737c.4152249.48442906 1.0726644.76124567 1.5916955.76124567.4844291 0 1.0380623-.17301038 1.0380623-.76124567 0-.5882353-.8304498-.76124568-1.2110726-.89965398-.3460208-.13840831-.4844291-.13840831-.7266436-.27681661-.3460208-.17301038-.8304499-.51903114-.8304499-1.28027682 0-1.00346021.8650519-1.52249135 1.799308-1.52249135.934256 0 1.4878893.34602076 1.83391.69204152l-.449827.65743945c-.3114187-.31141868-.8304498-.58823529-1.3494809-.58823529-.5190312 0-.8650519.20761245-.8650519.65743944s.5190311.62283737 1.0380622.79584775c.2768167.10380623.4844291.17301038.7266436.24221454.2076125.10380622.449827.24221453.6228374.38062283.2076125.20761246.4152249.51903115.4152249 1.00346021-.034602.55363322-.2422145.96885813-.5882353 1.24567474zm-68.33910031 13.01038065h-1.03806228v-.8650519h-.03460208c-.44982699.6574394-1.10726644.9688581-1.86851211.9688581-1.5916955 0-2.59515571-1.2110727-2.59515571-2.8027682s1.00346021-2.7681661 2.59515571-2.7681661c.8650519 0 1.48788927.3806229 1.86851211.9342561h.03460208v-3.2525952h1.07266436v7.7854672zm-2.73356401-4.5674741c-1.07266436 0-1.69550174.7958478-1.69550174 1.8685121 0 1.0726644.62283738 1.9031142 1.69550174 1.9031142 1.07266435 0 1.69550173-.8304498 1.69550173-1.9031142 0-1.0380622-.62283738-1.8685121-1.69550173-1.8685121zm8.82352942 4.5674741h-1.0380623v-.7612457c-.2768166.5190311-.89965398.899654-1.66089965.899654-.76124568 0-1.21107267-.2768166-1.48788927-.6228374-.27681661-.3460208-.38062284-.899654-.38062284-1.6608996v-3.2179931h1.07266436v3.1487889c0 .7266436.17301038 1.4186851 1.10726643 1.4186851.93425607 0 1.31487887-.7958477 1.31487887-1.6955017v-2.8719723h1.0726644zm10.2076124-1.0034602c-.484429.5536332-1.3494809 1.1418685-2.8373702 1.1418685-2.2491349 0-3.9792388-1.5916955-3.9792388-4.0138409 0-2.4221453 1.7301039-4.0138408 3.9792388-4.0138408 1.4532872 0 2.3183391.6228374 2.7681661 1.0380623l-.449827.8650519c-.3114187-.3806228-1.1764706-.9342561-2.2491349-.9342561-1.6955018 0-2.9065744 1.2110727-2.9065744 3.0449827 0 1.8339101 1.2110726 3.0449827 2.9065744 3.0449827 1.0380622 0 1.7993079-.3806228 2.3183391-.934256zm5.1557094 1.0034602h-1.0380623v-.6920415c-.2076125.2422145-.7266436.7958477-1.6955017.7958477-1.0034602 0-1.8339101-.6228374-1.8339101-1.6608997 0-1.0380622.8650519-1.5916955 2.1107267-1.6262975l1.4186851-.0692042v-.2076124c0-.7958478-.5536332-1.2110727-1.3148789-1.2110727s-1.4186851.3460208-1.6262976.449827l-.3114187-.7266436c.3806229-.2076125 1.1072665-.5536332 2.0069205-.5536332.8996539 0 1.4186851.2422145 1.7647058.6228373.3460208.3806229.5882353.8304499.5882353 1.7301038v3.148789zm-1.0726644-2.5605537-1.2456747.0692042c-.8650519.0346021-1.2110727.4152249-1.2110727.934256 0 .5190312.3806229.9342561 1.1072665.9342561.6920415 0 1.1764705-.4844291 1.3494809-.7612457zm7.1280277 2.5605537h-1.0726644v-2.9757786c0-.899654-.1730103-1.5916955-1.1072664-1.5916955-1.0034602 0-1.384083.8304499-1.384083 1.8685121v2.698962h-1.0726644v-5.3633218h1.0726644v.8304498h.034602c.2768167-.5190311.8650519-.9342561 1.6262976-.9342561 1.5224914 0 1.9031142 1.0034603 1.9031142 2.2837371zm5.5709343 0h-1.0380623v-.6920415c-.2076125.2422145-.7266436.7958477-1.6955017.7958477-1.0034603 0-1.8339101-.6228374-1.8339101-1.6608997 0-1.0380622.8650519-1.5916955 2.1107267-1.6262975l1.4186851-.0692042v-.2076124c0-.7958478-.5536332-1.2110727-1.3148789-1.2110727s-1.4186851.3460208-1.6262976.449827l-.3114187-.7266436c.3806229-.2076125 1.1072665-.5536332 2.0069204-.5536332.899654 0 1.4186852.2422145 1.7647059.6228373.3460208.3806229.5882353.8304499.5882353 1.7301038v3.148789zm-1.0726644-2.5605537-1.2456747.0692042c-.8650519.0346021-1.2110727.4152249-1.2110727.934256 0 .5190312.3806228.9342561 1.1072664.9342561.6920416 0 1.1764706-.4844291 1.349481-.7612457zm7.6470588 2.5605537h-1.0380623v-.8650519h-.034602c-.449827.6574394-1.1072665.9688581-1.8685121.9688581-1.5916955 0-2.5951558-1.2110727-2.5951558-2.8027682s1.0034603-2.7681661 2.5951558-2.7681661c.8650519 0 1.4878892.3806229 1.8685121.9342561h.034602v-3.2525952h1.0726644v7.7854672zm-2.733564-4.5674741c-1.0726643 0-1.6955017.7958478-1.6955017 1.8685121 0 1.0726644.6228374 1.9031142 1.6955017 1.9031142 1.0726644 0 1.6955017-.8304498 1.6955017-1.9031142 0-1.0380622-.6228373-1.8685121-1.6955017-1.8685121zm8.4429066 4.5674741h-1.0380623v-.6920415c-.2076125.2422145-.7266436.7958477-1.6955017.7958477-1.0034602 0-1.8339101-.6228374-1.8339101-1.6608997 0-1.0380622.8650519-1.5916955 2.0761246-1.6262975l1.4186851-.0692042v-.2076124c0-.7958478-.5536332-1.2110727-1.3148789-1.2110727-.7612456 0-1.4186851.3460208-1.6262975.449827l-.3114187-.7266436c.3806228-.2076125 1.1072664-.5536332 2.0069204-.5536332s1.4186851.2422145 1.7647059.6228373c.3460207.3806229.5882353.8304499.5882353 1.7301038v3.148789zm-1.0726644-2.5605537-1.2456747.0692042c-.8650519.0346021-1.2110727.4152249-1.2110727.934256 0 .5190312.3806229.9342561 1.1072665.9342561.6920415 0 1.1764705-.4844291 1.3494809-.7612457z"/></g><path d="m7.37024221 7.09342561c-.48442906.55363321-1.34948096 1.14186851-2.83737024 1.14186851-2.24913495 0-3.97923875-1.5916955-3.97923875-4.01384083s1.7301038-4.01384083 3.97923875-4.01384083c1.4532872 0 2.3183391.62283737 2.76816609 1.03806228l-.44982699.8650519c-.31141868-.38062283-1.17647059-.93425605-2.24913495-.93425605-1.66089965 0-2.90657439 1.21107266-2.90657439 3.0449827 0 1.83391003 1.21107266 3.0449827 2.90657439 3.0449827 1.03806229 0 1.79930796-.38062284 2.3183391-.93425606zm5.15570939 1.0034602h-1.0380623v-.69204152c-.2076125.24221453-.7266436.79584775-1.69550176.79584775-1.0034602 0-1.83391003-.62283737-1.83391003-1.66089965 0-1.03806229.8650519-1.5916955 2.11072669-1.62629758l1.4186851-.06920415v-.20761246c0-.79584775-.5536332-1.21107266-1.3148789-1.21107266-.76124569 0-1.41868514.34602076-1.6262976.44982699l-.31141868-.7266436c.38062284-.24221454 1.10726643-.55363322 2.00692038-.55363322.899654 0 1.4186852.24221453 1.7647059.62283737.3460208.38062284.5882353.83044983.5882353 1.73010381v3.14878892zm-1.0726644-2.56055363-1.2456747.06920415c-.86505195.03460208-1.21107271.41522492-1.21107271.93425606s.38062284.93425605 1.10726641.93425605c.6920416 0 1.1764706-.48442906 1.349481-.76124567zm7.0934256 2.56055363h-1.0726644v-2.97577854c0-.89965398-.1730103-1.59169551-1.1072664-1.59169551-1.0034602 0-1.384083.83044983-1.384083 1.86851212v2.69896193h-1.0726644v-5.32871972h1.0726644v.83044983h.034602c.2768166-.51903114.8650519-.93425606 1.6262976-.93425606 1.5224914 0 1.9031142 1.00346021 1.9031142 2.28373703zm5.6055363 0h-1.0380622v-.69204152c-.2076125.24221453-.7266436.79584775-1.6955018.79584775-1.0034602 0-1.83391-.62283737-1.83391-1.66089965 0-1.03806229.8650519-1.5916955 2.1107266-1.62629758l1.4186852-.06920415v-.20761246c0-.79584775-.5536333-1.21107266-1.3148789-1.21107266-.7612457 0-1.4186852.34602076-1.6262976.44982699l-.3114187-.7266436c.3806228-.24221454 1.1072664-.55363322 2.0069204-.55363322s1.4186851.24221453 1.7647059.62283737.5882353.83044983.5882353 1.73010381v3.14878892zm-1.0726643-2.56055363-1.2456748.06920415c-.8650519.03460208-1.2110726.41522492-1.2110726.93425606s.3806228.93425605 1.1072664.93425605c.6920415 0 1.1764706-.48442906 1.349481-.76124567zm7.6470588 2.56055363h-1.0380623v-.83044982h-.0346021c-.449827.65743944-1.1072664.96885813-1.8685121.96885813-1.5916955 0-2.5951557-1.21107267-2.5951557-2.80276817s1.0034602-2.76816609 2.5951557-2.76816609c.8650519 0 1.4878893.38062284 1.8685121.93425606h.0346021v-3.25259516h1.0726644v7.75086505zm-2.733564-4.56747405c-1.0726644 0-1.6955017.79584776-1.6955017 1.86851212s.6228373 1.90311418 1.6955017 1.90311418c1.0726643 0 1.6955017-.83044982 1.6955017-1.90311418 0-1.03806229-.6228374-1.86851212-1.6955017-1.86851212zm8.4083045 4.56747405h-1.0380623v-.69204152c-.2076125.24221453-.7266436.79584775-1.6955017.79584775-1.0034602 0-1.8339101-.62283737-1.8339101-1.66089965 0-1.03806229.8650519-1.5916955 2.1107267-1.62629758l1.4186851-.06920415v-.20761246c0-.79584775-.5536332-1.21107266-1.3148789-1.21107266s-1.4186851.34602076-1.6262976.44982699l-.3114187-.7266436c.3806229-.24221454 1.1072665-.55363322 2.0069205-.55363322.8996539 0 1.4186851.24221453 1.7647058.62283737.3460208.38062284.5882353.83044983.5882353 1.73010381v3.14878892zm-1.0726644-2.56055363-1.2456747.06920415c-.8650519.03460208-1.2110727.41522492-1.2110727.93425606s.3806229.93425605 1.1072665.93425605c.6920415 0 1.1764705-.48442906 1.3494809-.76124567zm11.2110727 1.55709343c-.4844291.55363321-1.349481 1.14186851-2.8373703 1.14186851-2.2491349 0-3.9792387-1.5916955-3.9792387-4.01384083s1.7301038-4.01384083 3.9792387-4.01384083c1.4532872 0 2.3183391.62283737 2.7681661 1.03806228l-.449827.8650519c-.3114186-.38062283-1.1764705-.93425605-2.2491349-.93425605-1.6608997 0-2.9065744 1.21107266-2.9065744 3.0449827 0 1.83391003 1.2110727 3.0449827 2.9065744 3.0449827 1.0380623 0 1.799308-.38062284 2.3183391-.93425606zm3.3564014 1.14186851c-1.5916955 0-2.8373703-1.10726644-2.8373703-2.76816609 0-1.66089966 1.2456748-2.80276817 2.8373703-2.80276817s2.8373702 1.14186851 2.8373702 2.80276817c0 1.66089965-1.2456747 2.76816609-2.8373702 2.76816609zm0-4.70588236c-1.0726644 0-1.7301038.83044983-1.7301038 1.86851212 0 1.07266436.6574394 1.90311418 1.7301038 1.90311418 1.0726643 0 1.7301038-.83044982 1.7301038-1.90311418 0-1.03806229-.6574395-1.86851212-1.7301038-1.86851212zm8.4775086 4.56747405h-1.0380623v-.76124567c-.2768166.51903114-.8996539.89965398-1.6608996.89965398s-1.2110727-.24221454-1.4878893-.62283737c-.2768166-.34602076-.3806228-.89965398-.3806228-1.66089966v-3.183391h1.0726643v3.14878893c0 .7266436.1730104 1.41868512 1.1072665 1.41868512.934256 0 1.3148789-.79584775 1.3148789-1.69550173v-2.87197232h1.0726643zm6.1591696 0h-1.0726644v-2.97577854c0-.89965398-.1730104-1.59169551-1.1072664-1.59169551-1.0034602 0-1.3840831.83044983-1.3840831 1.86851212v2.69896193h-1.1072664v-5.32871972h1.0726644v.83044983h.034602c.2768166-.51903114.8650519-.93425606 1.6262976-.93425606 1.5224914 0 1.9031142 1.00346021 1.9031142 2.28373703v3.14878892zm5.916955-.65743944c-.1730104.17301038-.6920415.79584775-2.1453287.79584775s-2.698962-1.07266436-2.698962-2.80276817c0-1.7301038 1.3148789-2.76816609 2.733564-2.76816609 1.4186852 0 2.0069205.69204152 2.0761246.76124568l-.3806228.79584775c-.1730104-.17301038-.6574395-.65743945-1.5916955-.65743945-.9342561 0-1.7301038.7266436-1.7301038 1.83391004 0 1.14186851.6920415 1.90311418 1.7301038 1.90311418s1.6262976-.69204152 1.6262976-.69204152zm1.4532872-5.77854672c-.4152249 0-.6920415-.27681661-.6920415-.65743944 0-.38062284.2768166-.65743945.6920415-.65743945s.6920415.27681661.6920415.65743945c0 .38062283-.2768166.65743944-.6920415.65743944zm.5536332 6.43598616h-1.0726644v-5.32871972h1.0726644z"/><path d="m75.087 8.097h-1.073v-7.751h1.073z"/><path d="m3.59861592 13.8062284s-.31141869-.1038063-.62283737-.1038063c-.69204153 0-.83044983.5190312-.83044983 1.1418686v.5882353h1.28027682v.8650519h-1.28027682v4.4636678h-1.07266436v-4.4636678h-.76124568v-.8650519h.76124568v-.5536333c0-.6920415.1384083-1.1418685.34602076-1.4186851.24221453-.2768166.65743945-.5882353 1.28027682-.5882353s.93425605.1384083.93425605.1384083zm2.83737024 7.0934256c-1.5916955 0-2.83737024-1.1072665-2.83737024-2.7681661 0-1.6608997 1.24567474-2.8027682 2.83737024-2.8027682s2.83737024 1.1418685 2.83737024 2.8027682c-.03460207 1.6608996-1.24567474 2.7681661-2.83737024 2.7681661zm0-4.7058824c-1.07266436 0-1.73010381.8304499-1.73010381 1.8685121 0 1.0726644.65743945 1.9031142 1.73010381 1.9031142s1.73010381-.8304498 1.73010381-1.9031142c0-1.0380622-.65743945-1.8685121-1.73010381-1.8685121zm6.85121104.2422146h-.034602c-.1038063-.0346021-.2768167-.1038063-.5882353-.1038063-.4844291 0-.7612457.3114187-.8650519.449827-.1038063.1384083-.3114187.5536332-.3114187 1.349481v2.6643599h-1.1072665v-5.3633218h1.0726644v.8304498h.0346021c.2422145-.6228374.7266436-.9342561 1.3148789-.9342561.3460207 0 .5536332.1038063.5536332.1038063zm5.7093426 4.2906574s-.4152249.1730104-.9688581.1730104c-.5536333 0-.899654-.2076125-1.1418686-.5536332-.2076124-.3460208-.2768166-.7612457-.2768166-1.5916955v-2.4567474h-.7958477v-.8650519h.7958477v-1.5916956h1.0726644v1.5916956h1.2802768v.8650519h-1.2802768v2.4221453c0 .449827 0 .7612457.1384083.9688581.1038062.1730104.2422145.2768166.5536332.2768166s.5536332-.1384083.5536332-.1384083zm5.6055363.0346021h-1.0726643v-3.0449827c0-.7612457-.1384083-1.5224914-1.1072665-1.5224914-.9688581 0-1.384083.8304499-1.384083 1.9031142v2.6297578h-1.0726644v-7.7508651h1.0726644v3.2525952h.0346021c.2768166-.5190311.8650519-.9342561 1.6608996-.9342561 1.5570934 0 1.9031142 1.0034603 1.9031142 2.249135v3.2179931zm6.2975779-2.3875433h-4.1176471c.0692042 1.0726644.7266436 1.6955018 1.7301038 1.6955018s1.6608997-.5536333 1.7647059-.6228374l.449827.6228374c-.0692042.0692041-.7612457.8304498-2.3529412.8304498s-2.6643598-1.1072665-2.6643598-2.8027682 1.2110726-2.7681661 2.6989619-2.7681661 2.5259516 1.0726644 2.5259516 2.5605537c0 .2076124-.0346021.484429-.0346021.484429zm-.9688582-.7266436c0-.5882353-.4498269-1.5224913-1.5570934-1.5224913-1.0726643 0-1.5570934.899654-1.5916955 1.5224913zm10.899654 3.1141869h-1.2110726l-.7958478-2.0415225h-3.3217993l-.7958477 2.0415225h-1.1418686l3.148789-7.7854672h.9688581zm-2.3183391-2.9065744-1.3494809-3.4948097-1.349481 3.4948097zm5.9861592-1.4186851h-.0346021c-.1038062-.0346021-.2768166-.1038063-.5882353-.1038063-.484429 0-.7612456.3114187-.8650519.449827-.1038062.1384083-.3114187.5536332-.3114187 1.349481v2.6643599h-1.0726643v-5.3633218h1.0726643v.8304498h.0346021c.2422145-.6228374.7266436-.9342561 1.3148789-.9342561.3460208 0 .5536332.1038063.5536332.1038063zm3.4602076 4.2906574s-.4152249.1730104-.9688581.1730104-.899654-.2076125-1.1418685-.5536332c-.2076125-.3460208-.2768166-.7612457-.2768166-1.5916955v-2.4567474h-.7958478v-.8650519h.7958478v-1.5916956h1.0726643v1.5916956h1.2802768v.8650519h-1.2802768v2.4221453c0 .449827 0 .7612457.1384083.9688581.1038062.1730104.2422146.2768166.5536332.2768166.3114187 0 .5536333-.1384083.5536333-.1384083zm3.9446367-.3114187c-.3806229.3114187-.8650519.4844291-1.4878893.4844291-.899654 0-1.6262976-.3806229-2.0761246-.9688582l.5190312-.6228373c.4152249.484429 1.0726643.7612457 1.5916955.7612457.4844291 0 1.0380623-.1730104 1.0380623-.7612457s-.8304499-.7612457-1.2110727-.899654c-.3460208-.1384083-.4844291-.1384083-.7266436-.2768166-.3460208-.1730104-.8304498-.5190312-.8304498-1.2802768 0-1.0034602.8650519-1.5224914 1.7993079-1.5224914.9342561 0 1.4878893.3460208 1.8339101.6920415l-.449827.6574395c-.3114187-.3114187-.8304498-.5882353-1.349481-.5882353-.5190311 0-.8650519.2076125-.8650519.6574394 0 .449827.5190312.6228374 1.0380623.7958478.2768166.1038062.4844291.1730104.7266436.2422145.2076125.1038063.449827.2422146.6228374.3806229.2076124.2076124.4152249.5190311.4152249 1.0034602-.0346021.5536332-.2422146.9688581-.5882353 1.2456747z"/></g><path d="m32.5259516 29.3771626c-1.7301038-1.6955017-6.7474049-3.1487889-11.9031142-3.4602076-.3806229.2768166-.6228374.5882353-.7612457.899654 4.3252595.2076125 8.5121107 1.4186851 10.0346021 2.8027682 1.384083 1.1072664 1.1764706 2.6297577-.449827 3.66782-2.3529412 1.6608997-7.2318339 2.4221454-12.5259516 2.3875433-5.2941176.0346021-10.17301036-.7266436-12.52595153-2.3875433-1.62629758-1.0380623-1.83391004-2.5605536-.41522492-3.66782 1.55709343-1.3840831 5.70934256-2.6297578 10.03460205-2.8027682-.1384083-.3114187-.4152249-.5882353-.7612456-.899654-5.15570939.3114187-10.13840835 1.7647059-11.90311423 3.4602076-2.35294118 2.1453287-.48442907 4.5674741 4.67128028 6.0899654 2.87197231.8650519 6.92041525 1.349481 10.89965395 1.349481 3.9792388 0 8.0276817-.4844291 10.899654-1.349481 5.1557093-1.5224913 7.0588235-3.9446367 4.7058824-6.0899654z"/><path d="m29.7577855 11.8685121c-.1038063-1.4186851-1.2456748-2.52595155-2.6297578-3.04498269.5536332-.79584775.6574394-1.66089965.2422145-2.62975778-.6574394-1.52249135-2.4221453-2.00692042-3.4948097-1.93771627-1.4878892.10380623-2.3875432.7266436-3.9792387 1.93771627-.3806229-.27681661-1.1072665-.83044983-1.4532872-1.10726644 0 0 1.0726643-.89965398 2.2145328-1.48788927 1.0726644-.5882353 1.799308-.65743945 1.799308-.65743945s-1.9031142-2.59515571-5.5709343-2.62975779c-3.66782.03460208-5.5709342 2.62975779-5.5709342 2.62975779s.7266436.06920415 1.799308.65743945c1.1418685.58823529 2.2145328 1.48788927 2.2145328 1.48788927-.3114187.24221453-1.0726643.79584775-1.4532872 1.10726644-1.5916955-1.21107267-2.4913495-1.83391004-3.97923873-1.93771627-1.07266436-.06920415-2.83737024.41522492-3.49480969 1.93771627-.41522491.96885813-.31141868 1.83391003.24221454 2.62975778-1.38408305.51903114-2.52595156 1.62629759-2.62975779 3.04498269s.7266436 2.733564 2.21453287 3.3564014c-.41522491.5190311-.62283737 1.1418685-.62283737 1.6608996 0 1.3840831 1.24567474 3.2525952 3.87543253 3.1833911 1.97231834-.0692042 2.73356404-.6574395 4.29065744-1.8685122.1038062.1384083 1.2802768 2.0415225 1.2802768 5.3287198 0 0 .1730104 2.5259515-1.0726643 8.6851211 0 .3460207 1.2802768.5882353 2.8719723.5882353s2.8719723-.2768166 2.8719723-.5882353c-1.2456747-6.1591696-1.0726644-8.6851211-1.0726644-8.6851211 0-3.3217993 1.2110727-5.1903115 1.2802768-5.3287198 1.5570935 1.2110727 2.3183391 1.799308 4.2906575 1.8685122 2.6297578.0692041 3.8754325-1.799308 3.8754325-3.1833911 0-.5190311-.2076124-1.1072664-.6228374-1.6608996 1.5570935-.6228374 2.3875433-1.9377163 2.2837371-3.3564014zm-5.9169551-5.6401384c1.3840831-.06920415 1.9031142.76124568 1.799308 1.3148789-.1384083.69204152-1.0034602 1.21107266-1.799308 1.10726643-.7958477-.06920415-1.384083-.48442906-2.3183391-1.24567474.6228374-.48442907 1.4186852-1.10726644 2.3183391-1.17647059zm-3.8754325 2.38754326c.449827.34602076.8650519.65743944 1.2110727.89965397.1730104.13840831.3460207.27681661.5190311.38062284-.2422145.17301043-.4152249.31141873-.6920415.51903113-.2076124.1384083-.4844291.3806229-.7958477.5882353-.4844291-.3460208-1.0380623-.7958477-1.6955018-1.28027681.449827-.34602076.899654-.7266436 1.4532872-1.10726643zm-1.5916955-1.21107267c-.449827.34602076-.8650519.65743945-1.4186851 1.10726644-.5536332-.41522492-.9688581-.76124568-1.4186851-1.10726644.3460207-.27681661.7958477-.62283737 1.384083-1.07266436l.0346021-.03460208.0346021.03460208c.5882353.44982699 1.0034602.79584775 1.384083 1.07266436zm-3.4256055-4.80968858s.4844291-.55363322 1.9377162-.55363322c1.4532872 0 1.9377163.55363322 1.9377163.55363322s-.3806228.20761246-.899654.58823529c-.6920415.48442907-1.0034602.76124568-1.0380623.76124568-.034602-.03460208-.3460207-.31141869-1.0380622-.76124568-.5190312-.38062283-.899654-.58823529-.899654-.58823529zm1.9031142 8.37370239.0692041-.0692041.0692042.0692041c.5190311.4152249 1.0726643.7958478 1.6608996 1.2456748-.3460207.2422145-.6228373.449827-.8650519.6574394-.2422145.1730104-.5190311.3806229-.7958477.5882353l-.0346021.0346021-.0346021-.0346021c-.2768166-.2076124-.5536332-.4152249-.7958477-.5882353-.2422146-.1730104-.5190312-.4152249-.8650519-.6574394.5190311-.449827 1.0726643-.8304499 1.5916955-1.2456748zm-2.9757786-2.35294114c.5190312.38062283 1.0034602.76124567 1.4532872 1.10726643-.6574394.51903111-1.2456747.93425601-1.7301038 1.28027681-.2768166-.2076124-.5882353-.449827-.7958477-.5882353-.2768166-.2076124-.449827-.3460207-.6920416-.51903113.1730104-.10380623.3460208-.24221453.5190312-.38062284.3806228-.24221453.8304498-.58823529 1.2456747-.89965397zm-3.8754325-2.38754326c.899654.03460208 1.6955017.69204152 2.3183391 1.17647059-.9688581.76124568-1.5570934 1.17647059-2.3183391 1.24567474-.79584775.10380623-1.66089965-.41522491-1.79930796-1.10726643-.10380623-.55363322.41522492-1.38408305 1.79930796-1.3148789zm-4.01384083 6.0207612c-.03460208-.7266436.48442907-1.7647058 2.42214533-1.8685121 1.31487889-.0692041 2.2145329.6920416 3.6678201 1.7647059-1.1418685.8650519-2.0415225 1.6262976-3.70242218 1.7301038-1.31487889.1038063-2.35294117-.8650519-2.38754325-1.6262976zm3.70242214 5.9861592c-1.38408304.0692042-2.21453287-.6228374-2.14532871-1.384083.03460207-.5882353 1.34948096-1.9723184 4.083045-.7612457.3806228.1730104.6920415.3806228 1.0034602.6228374-1.349481 1.0380623-1.8685121 1.4878892-2.94117649 1.5224913zm4.42906579-2.6297578c-.5190312-.484429-1.0726644-.8996539-1.799308-1.2456747.449827-.2768166.8650519-.6228374 1.3148789-.9688581.0346021-.0346021.0346021-.0346021.0346021-.0346021.6228373.449827 1.2110726.899654 1.7301038 1.2802768-.449827.3460208-.8650519.6574394-1.2802768.9688581zm2.8373702 5.1903115-.0346021.1730103-.0346021-.1730103c-.3460207-1.4186852-.7612456-2.6643599-1.384083-3.598616.4844291-.3806228.9342561-.7266436 1.4186851-1.0726643.449827.3460207.899654.6920415 1.4186851 1.0726643-.5882352.9342561-1.0380622 2.1799308-1.384083 3.598616zm2.7681661-5.1903115c-.4152249-.3114187-.8304498-.6228373-1.2802768-.9688581.5190311-.3806228 1.1072664-.8304498 1.6955017-1.2802768.0346021 0 .0346021 0 .0346021.0346021.449827.3806228.8650519.6920415 1.3148789.9688581-.6920415.3460208-1.2456748.7612457-1.7647059 1.2456747zm4.4290657 2.6297578c-1.0726643-.0346021-1.5570934-.484429-2.9411764-1.4878893.3114186-.2768166.6228373-.4498269 1.0034602-.6228373 2.733564-1.2456748 4.0484429.1384083 4.083045.7612456.0692041.7266436-.7612457 1.4186852-2.1453288 1.349481zm1.3148789-4.3252595c-1.6608996-.1038062-2.5259515-.8650519-3.7024221-1.7301038 1.4186851-1.0726644 2.3529412-1.83391 3.6678201-1.7647059 1.9377162.1038062 2.4567474 1.1418685 2.4221453 1.8685121s-1.0726644 1.6955018-2.3875433 1.6262976z"/></g></svg>