<svg height="37" viewBox="0 0 154 37" width="154" xmlns="http://www.w3.org/2000/svg"><g fill="#0a0a0a" fill-rule="evenodd"><path d="m18.3906 11.3364c-.952-3.066-2.484-4.387-4.969-4.387-2.167 0-3.7 1.321-3.7 3.224 0 2.009 1.004 2.802 6.079 4.705 3.436 1.321 4.704 1.955 6.236 3.224 2.274 1.85 3.49 4.44 3.49 7.611 0 6.767-5.022 11.259-12.475 11.259-6.502 0-10.466-3.118-12.264-9.673l6.767-1.902c1.004 3.699 2.695 5.285 5.655 5.285 2.697 0 4.494-1.533 4.494-3.806 0-2.008-1.216-3.119-4.864-4.44-4.439-1.585-5.602-2.167-7.346-3.594-2.115-1.85-3.278-4.387-3.278-7.4 0-6.449 4.493-10.783 11.312-10.783 3.118 0 5.814.845 7.823 2.484 1.691 1.321 2.537 2.749 3.488 5.709z"/><path d="m48.478 1.188v6.607h-7.187v28.649h-7.771v-28.649h-7.031v-6.607z"/><path d="m58.5869 16.8335h3.383c2.96 0 4.546-1.797 4.546-5.127 0-1.692-.529-3.119-1.533-3.964-.687-.582-1.638-.846-3.33-.846h-3.066zm3.33-15.646c4.758 0 6.29.37 8.352 1.851 2.431 1.849 3.805 4.968 3.805 8.827 0 4.492-1.426 7.083-4.968 9.197l6.502 15.381h-8.458l-4.704-13.901h-3.859v13.901h-7.717v-35.256zm51.1681 16.1748h2.378c3.595 0 4.969-1.48 4.969-5.338 0-1.798-.529-3.33-1.427-4.177-.74-.739-1.639-.951-3.542-.951h-2.378zm2.378-16.175c5.075 0 7.083.37 9.039 1.745 2.643 1.797 4.123 5.18 4.123 9.303 0 4.281-1.48 7.664-4.018 9.356-2.061 1.374-4.228 1.85-8.774 1.85h-2.748v13.003h-7.718v-35.257zm22.8085 16.175h2.378c3.595 0 4.969-1.48 4.969-5.338 0-1.798-.529-3.33-1.427-4.177-.74-.739-1.639-.951-3.542-.951h-2.378zm2.378-16.175c5.075 0 7.083.37 9.039 1.745 2.643 1.797 4.123 5.18 4.123 9.303 0 4.281-1.48 7.664-4.018 9.356-2.061 1.374-4.228 1.85-8.774 1.85h-2.748v13.003h-7.718v-35.257zm-51.7989 28.0026 3.436-14.377h-6.977zm-4.651 7.559-10.043-35.257h7.928l1.745 7.242h9.937l1.691-7.242h7.796l-10.571 35.257z"/></g></svg>