<svg height="59" viewBox="0 0 249 59" width="249" xmlns="http://www.w3.org/2000/svg"><g fill="#0a0a0a" fill-rule="evenodd"><path d="m28.4619427 17.347589c-1.53927-4.9815218-4.0163305-7.127833-8.0342779-7.127833-3.5037794 0-5.9824568 2.1463112-5.9824568 5.2382343 0 3.2641478 1.6233477 4.5525844 9.8290149 7.6445074 5.5556005 2.1463113 7.6058046 3.1764107 10.0828651 5.2382343 3.6767856 3.0058106 5.642912 7.2139454 5.642912 12.3660672 0 10.9947677-8.1199725 18.2932008-20.1705809 18.2932008-10.51295522 0-16.92226845-5.0660094-19.8294191-15.7163275l10.9414285-3.0902982c1.6233478 6.0099964 4.3574922 8.5868697 9.1434577 8.5868697 4.360726 0 7.2662598-2.4907609 7.2662598-6.183846 0-3.2625231-1.9661264-5.0676342-7.8645055-7.2139454-7.1773313-2.5752486-9.057763-3.5208603-11.87760214-5.8393964-3.41970169-3.0058106-5.30013339-7.127833-5.30013339-12.0232424 0-10.4780932 7.26464287-17.5198138 18.29014913-17.5198138 5.0414326 0 9.4005417 1.3729243 12.6488541 4.03591 2.7341444 2.14631124 4.1020251 4.46647207 5.6396782 9.275769z"/><path d="m78 1v10.682h-11.766v46.318h-12.723v-46.318h-11.511v-10.682z"/><path d="m94.5191273 26.5185256h5.4881697c4.801946 0 7.374881-2.930858 7.374881-8.3619972 0-2.7596059-.858186-5.087004-2.486954-6.4651759-1.114506-.9492262-2.657293-1.379803-5.4021891-1.379803h-4.9739076zm5.4021893-25.51819941c7.7188034 0 10.2041354.60345992 13.5492744 3.01893054 3.94376 3.01566858 6.172772 8.10267257 6.172772 14.39659637 0 7.3263295-2.31337 11.5521798-8.059482 15.0000562l10.548058 25.0859916h-13.721236l-7.631201-22.672152h-6.2603747v22.672152h-12.5191273v-57.50157471zm83.0089364 26.38065781h3.857779c5.832093 0 8.061105-2.4138397 8.061105-8.7061325 0-2.932489-.858186-5.4311392-2.314992-6.8125731-1.200487-1.2052888-2.658916-1.5510551-5.746113-1.5510551h-3.857779zm3.857779-26.380984c8.233066 0 11.490603.60345991 14.66378 2.84604742 4.287684 2.93085801 6.688657 8.44843878 6.688657 15.17293938 0 6.9821942-2.400973 12.499775-6.518317 15.2593809-3.343517 2.2409565-6.858996 3.0172995-14.233877 3.0172995h-4.458022v21.2075385h-12.52075v-57.5032057zm37.001752 26.380984h3.857779c5.832093 0 8.061105-2.4138397 8.061105-8.7061325 0-2.932489-.858186-5.4311392-2.314992-6.8125731-1.200487-1.2052888-2.658916-1.5510551-5.746113-1.5510551h-3.857779zm3.857779-26.380984c8.233066 0 11.490603.60345991 14.663781 2.84604742 4.287683 2.93085801 6.688656 8.44843878 6.688656 15.17293938 0 6.9821942-2.400973 12.499775-6.518317 15.2593809-3.343517 2.2409565-6.858996 3.0172995-14.233876 3.0172995h-4.458023v21.2075385h-12.52075v-57.5032057zm-84.032269 45.6714771 5.57415-23.448495h-11.318641zm-7.54522 12.3285229-16.292549-57.50320571h12.861429l2.830876 11.81150451h16.120587l2.743274-11.81150451h12.647288l-17.149112 57.50320571z"/></g></svg>